<svg xmlns="http://www.w3.org/2000/svg" version="1.1" xmlns:xlink="http://www.w3.org/1999/xlink" width="25" height="25" x="0" y="0" viewBox="0 0 24 24" style="enable-background:new 0 0 512 512" xml:space="preserve" class=""><g><g fill="#000"><path d="M12 1a1 1 0 0 1 1 1v2a1 1 0 1 1-2 0V2a1 1 0 0 1 1-1z" fill="#ffffff" opacity="1" data-original="#000000" class=""></path><path fill-rule="evenodd" d="M5.952 12a6.048 6.048 0 1 1 12.096 0 6.048 6.048 0 0 1-12.096 0zM12 7.952a4.048 4.048 0 1 0 0 8.095 4.048 4.048 0 0 0 0-8.095z" clip-rule="evenodd" fill="#ffffff" opacity="1" data-original="#000000" class=""></path><path d="M5.564 4.245A1 1 0 0 0 4.15 5.659l1.429 1.429a1 1 0 0 0 1.414-1.414zM1 12a1 1 0 0 1 1-1h2a1 1 0 1 1 0 2H2a1 1 0 0 1-1-1zM6.993 18.326a1 1 0 1 0-1.414-1.414L4.15 18.341a1 1 0 1 0 1.414 1.414zM12 19a1 1 0 0 1 1 1v2a1 1 0 1 1-2 0v-2a1 1 0 0 1 1-1zM18.326 16.912a1 1 0 0 0-1.414 1.414l1.429 1.429a1 1 0 0 0 1.414-1.414zM19 12a1 1 0 0 1 1-1h2a1 1 0 1 1 0 2h-2a1 1 0 0 1-1-1zM19.755 5.66a1 1 0 1 0-1.415-1.415l-1.428 1.429a1 1 0 0 0 1.414 1.414z" fill="#ffffff" opacity="1" data-original="#000000" class=""></path></g></g></svg>